<?xml version="1.0" standalone="no"?>
<!DOCTYPE svg PUBLIC "-//W3C//DTD SVG 20010904//EN"
 "http://www.w3.org/TR/2001/REC-SVG-20010904/DTD/svg10.dtd">
<svg version="1.0" xmlns="http://www.w3.org/2000/svg"
 width="860.000000pt" height="694.000000pt" viewBox="0 0 860.000000 694.000000"
 preserveAspectRatio="xMidYMid meet">
<metadata>
Created by potrace 1.16, written by Peter Selinger 2001-2019
</metadata>
<g transform="translate(0.000000,694.000000) scale(0.100000,-0.100000)"
fill="#000000" stroke="none">
<path d="M2367 4104 c-4 -4 -7 -63 -7 -130 l0 -123 -127 -3 -128 -3 -3 -252
-2 -252 -123 -3 -122 -3 -3 -382 -2 -382 -128 -3 -127 -3 -3 -377 -2 -377
-123 -3 -122 -3 -3 -684 c-1 -469 1 -688 8 -695 6 -6 62 -13 125 -15 l115 -3
0 61 0 61 255 0 255 0 0 255 0 255 -255 0 -255 0 0 385 0 385 130 0 130 0 0
380 0 380 125 0 125 0 0 385 0 385 130 0 130 0 0 255 0 255 255 0 255 0 0
-255 0 -255 130 0 130 0 0 -385 0 -385 255 0 255 0 0 260 0 260 130 0 130 0 0
-260 0 -260 380 0 380 0 0 260 0 260 130 0 130 0 0 -260 0 -260 255 0 255 0 0
385 0 385 130 0 130 0 0 255 0 255 255 0 255 0 0 -255 0 -255 130 0 130 0 0
-385 0 -385 125 0 125 0 0 -380 0 -380 130 0 130 0 0 -385 0 -385 -255 0 -255
0 0 -255 0 -255 255 0 255 0 0 -61 0 -61 113 4 c61 2 118 7 125 11 9 6 12 126
11 550 -1 298 -4 607 -8 687 l-6 145 -117 3 -118 3 -2 377 -3 377 -127 3 -128
3 -2 382 -3 382 -122 3 -123 3 -2 252 -3 252 -127 3 -127 3 -3 127 -3 127
-250 0 -250 0 -3 -127 -3 -127 -127 -3 -127 -3 -3 -252 -2 -253 -1150 0 -1150
0 -2 253 -3 252 -127 3 -127 3 -3 127 -3 127 -246 3 c-135 1 -248 -1 -252 -4z"/>
<path d="M2100 2190 l0 -130 130 0 130 0 0 -125 0 -125 -130 0 -130 0 0 -130
0 -130 130 0 130 0 0 130 0 130 130 0 130 0 0 125 0 125 -130 0 -130 0 0 130
0 130 -130 0 -130 0 0 -130z"/>
<path d="M2870 2065 l0 -255 255 0 255 0 0 255 0 255 -255 0 -255 0 0 -255z"/>
<path d="M5180 2065 l0 -255 255 0 255 0 0 255 0 255 -255 0 -255 0 0 -255z"/>
<path d="M6200 2190 l0 -130 -130 0 -130 0 0 -125 0 -125 130 0 130 0 0 -130
0 -130 130 0 130 0 0 130 0 130 -130 0 -130 0 0 125 0 125 130 0 130 0 0 130
0 130 -130 0 -130 0 0 -130z"/>
<path d="M4150 1935 l0 -125 -125 0 -125 0 0 -130 0 -130 380 0 380 0 0 130 0
130 -125 0 -125 0 0 125 0 125 -130 0 -130 0 0 -125z"/>
</g>
</svg>
